# xmcd
#
# Track frame offsets:
#	150
#	11627
#	23620
#	40957
#	55787
#	73815
#	91542
#	109627
#	125025
#	140722
#	156391
#	172267
#	189435
#	206655
#	224453
#	238172
#	254537
#
# Disc length: 3630 seconds
#
# Revision: 1
# Processed by: cddbd v1.5.2PL0 Copyright (c) Steve Scherf et al.
# Submitted via: audiograbber 1.83.01
#
DISCID=fd0e2c11
DTITLE=Oak Ridge Boys - Oak Ridge Boys Gold Disc Two
DYEAR=2007
DGENRE=Country
TTITLE0=Thank God For Kids
TTITLE1=American Made
TTITLE2=Love Song
TTITLE3=Ozark Mountain Jubilee
TTITLE4=I Guess It Never Hurts To Hurt Sometimes
TTITLE5=Everyday
TTITLE6=Make My Life With You
TTITLE7=Little Things
TTITLE8=Touch A Hand, Make A Friend
TTITLE9=Come On In (You Did The Best You Could Do)
TTITLE10=Juliet
TTITLE11=When You Get To The Heart
TTITLE12=You Made A Rock Of A Rolling Stone
TTITLE13=It Takes A Little Rain (To Make Love Grow)
TTITLE14=This Crazy Love
TTITLE15=Time In
TTITLE16=True Heart
EXTD=
EXTT0=
EXTT1=
EXTT2=
EXTT3=
EXTT4=
EXTT5=
EXTT6=
EXTT7=
EXTT8=
EXTT9=
EXTT10=
EXTT11=
EXTT12=
EXTT13=
EXTT14=
EXTT15=
EXTT16=
PLAYORDER=
